<?xml version="1.0" standalone="no"?>
<!DOCTYPE svg PUBLIC "-//W3C//DTD SVG 20010904//EN"
 "http://www.w3.org/TR/2001/REC-SVG-20010904/DTD/svg10.dtd">
<svg version="1.0" xmlns="http://www.w3.org/2000/svg"
 width="1184.000000pt" height="1280.000000pt" viewBox="0 0 1184.000000 1280.000000"
 preserveAspectRatio="xMidYMid meet">
<g transform="translate(0.000000,1280.000000) scale(0.100000,-0.100000)"
fill="#000000" stroke="none">
<path d="M11730 12744 c-314 -169 -682 -440 -1055 -778 -178 -162 -562 -544
-768 -766 -442 -475 -957 -1091 -1421 -1698 -77 -100 -142 -182 -146 -182 -4
0 -22 21 -41 48 -53 75 -207 229 -293 293 -103 78 -257 153 -381 185 l-100 25
-895 4 c-909 4 -2301 18 -3650 35 -410 6 -823 10 -919 10 l-175 0 30 -31 c41
-44 187 -112 332 -153 592 -171 1973 -325 3862 -431 235 -13 449 -23 1133 -54
183 -8 189 -9 253 -41 87 -42 181 -132 255 -243 57 -85 139 -236 139 -255 0
-5 -48 -76 -107 -158 -790 -1105 -1494 -2197 -2192 -3402 -24 -41 -45 -72 -47
-70 -2 2 -53 161 -113 354 -198 631 -267 821 -372 1024 -190 368 -410 476
-781 381 -234 -60 -460 -216 -536 -369 -45 -91 -55 -157 -49 -302 6 -139 42
-297 115 -510 76 -220 360 -1016 437 -1225 169 -460 377 -954 464 -1102 165
-283 394 -436 671 -450 157 -7 288 26 427 108 77 46 198 167 263 263 102 152
228 438 385 871 370 1023 840 2028 1384 2958 145 248 343 568 349 563 6 -7 49
-284 76 -491 106 -826 152 -2025 128 -3345 -18 -971 -49 -1628 -115 -2450
l-22 -275 -190 3 c-589 8 -2346 88 -3275 147 -1202 78 -2039 157 -2740 261
-264 39 -640 104 -692 120 -26 8 -32 177 -20 569 33 1010 150 2321 437 4915
176 1587 195 1771 201 1900 17 342 -70 483 -328 536 -107 21 -686 41 -800 26
-203 -25 -273 -119 -327 -439 -36 -214 -267 -2684 -360 -3853 -119 -1482 -178
-2830 -153 -3442 26 -628 89 -885 269 -1105 175 -213 673 -375 1453 -472 1230
-153 3347 -244 5650 -243 1071 1 1397 9 1490 37 191 59 333 204 374 386 18 77
40 850 57 2046 19 1272 -11 2538 -81 3363 -89 1047 -216 1790 -420 2463 -27
91 -50 171 -50 176 0 13 153 225 394 546 236 314 375 493 881 1130 861 1085
1127 1447 1442 1960 127 206 363 643 363 670 0 10 -17 3 -100 -41z"/>
</g>
</svg>
